<svg width="24" height="24" viewBox="0 0 24 24" fill="none" xmlns="http://www.w3.org/2000/svg">
<path d="M23.0863 23.1762C22.5125 23.6949 21.7344 23.9862 20.9231 23.9862C20.1117 23.9862 19.3336 23.6949 18.7598 23.1762L12.0013 16.1925L5.2427 23.1739C4.95947 23.4342 4.62204 23.6412 4.24988 23.783C3.87772 23.9247 3.47819 23.9985 3.07434 24C2.67049 24.0015 2.27031 23.9306 1.89688 23.7916C1.52346 23.6526 1.18417 23.4481 0.898607 23.1899C0.613039 22.9317 0.386838 22.625 0.23305 22.2874C0.0792616 21.9498 0.000930183 21.588 0.00257462 21.2229C0.00421906 20.8578 0.0858063 20.4966 0.24263 20.1602C0.399455 19.8237 0.628412 19.5186 0.916296 19.2626L7.94766 12.0023L0.913747 4.73741C0.625863 4.48136 0.396905 4.1763 0.240081 3.83984C0.083257 3.50339 0.0016698 3.14219 2.53643e-05 2.77708C-0.00161908 2.41198 0.0767123 2.05019 0.2305 1.71259C0.384289 1.37499 0.61049 1.06826 0.896057 0.81009C1.18163 0.55192 1.52091 0.34742 1.89433 0.208386C2.26776 0.0693526 2.66794 -0.00146374 3.07179 2.29309e-05C3.47564 0.0015096 3.87517 0.0752694 4.24733 0.217048C4.61949 0.358826 4.95692 0.565818 5.24015 0.826082L12.0013 7.81209L18.7598 0.826082C19.0431 0.565818 19.3805 0.358826 19.7527 0.217048C20.1248 0.0752694 20.5244 0.0015096 20.9282 2.29309e-05C21.3321 -0.00146374 21.7322 0.0693526 22.1057 0.208386C22.4791 0.34742 22.8184 0.55192 23.1039 0.81009C23.3895 1.06826 23.6157 1.37499 23.7695 1.71259C23.9233 2.05019 24.0016 2.41198 24 2.77708C23.9983 3.14219 23.9167 3.50339 23.7599 3.83984C23.6031 4.1763 23.3741 4.48136 23.0863 4.73741L16.0549 12.0023L23.0863 19.2626C23.3707 19.5195 23.5964 19.8245 23.7503 20.1603C23.9043 20.496 23.9835 20.8559 23.9835 21.2194C23.9835 21.5829 23.9043 21.9428 23.7503 22.2785C23.5964 22.6143 23.3707 22.9194 23.0863 23.1762Z" fill="#6B806F"/>
</svg>
