<?xml version="1.0" encoding="UTF-8" standalone="no"?>
<svg
   width="20"
   height="20"
   viewBox="0 0 20 20"
   fill="none"
   version="1.1"
   id="svg1"
   sodipodi:docname="phone.svg"
   inkscape:version="1.4.3 (0d15f75, 2025-12-25)"
   xmlns:inkscape="http://www.inkscape.org/namespaces/inkscape"
   xmlns:sodipodi="http://sodipodi.sourceforge.net/DTD/sodipodi-0.dtd"
   xmlns="http://www.w3.org/2000/svg"
   xmlns:svg="http://www.w3.org/2000/svg">
  <defs
     id="defs1" />
  <sodipodi:namedview
     id="namedview1"
     pagecolor="#ffffff"
     bordercolor="#000000"
     borderopacity="0.25"
     inkscape:showpageshadow="2"
     inkscape:pageopacity="0.0"
     inkscape:pagecheckerboard="0"
     inkscape:deskcolor="#d1d1d1"
     inkscape:zoom="58.35"
     inkscape:cx="9.991431"
     inkscape:cy="10"
     inkscape:window-width="3440"
     inkscape:window-height="1369"
     inkscape:window-x="-8"
     inkscape:window-y="-8"
     inkscape:window-maximized="1"
     inkscape:current-layer="svg1" />
  <path
     style="baseline-shift:baseline;display:inline;overflow:visible;vector-effect:none;fill:#3f3f3f;stroke-linecap:round;stroke-linejoin:round;enable-background:accumulate;stop-color:#000000;stop-opacity:1;opacity:1"
     d="m 5.375,0 c -2.5,0 -4.3227276,1.8041204 -4.94921875,3.6835938 -0.5421637,1.6264911 -0.54050678,2.9825041 -0.0214844,5.0585937 0.5095112,2.0380445 1.16939092,3.8705625 3.76367182,6.4648435 2.594281,2.594281 4.426799,3.254161 6.4648443,3.763672 2.076089,0.519023 3.432102,0.520679 5.058593,-0.02148 C 17.57088,18.322728 19.375,16.5 19.375,14 c 0,-0.40625 -0.160615,-0.597318 -0.263672,-0.728516 -0.103057,-0.131197 -0.196746,-0.213415 -0.292969,-0.292968 -0.192444,-0.159108 -0.401325,-0.29392 -0.640625,-0.4375 -0.478599,-0.28716 -1.074666,-0.592523 -1.6875,-0.882813 C 15.877401,11.367914 15.254413,11.096214 14.736328,10.890625 14.477285,10.78783 14.245605,10.70272 14.042969,10.636719 13.840333,10.570717 13.770833,10.5 13.375,10.5 c -1,0 -1.622683,0.591967 -2.158203,1.060547 -0.53552,0.46858 -1.027577,0.914179 -1.2890626,1.044922 0.038006,-0.019 0.035528,0.009 -0.109375,-0.0332 C 9.6734563,12.53005 9.4395885,12.412112 9.2050781,12.253906 8.7360574,11.937495 8.2770312,11.487969 8.0820313,11.292969 7.5820312,10.792969 7.1273755,10.318254 6.9101562,9.9707031 6.692937,9.6231523 6.6984167,9.5894947 6.7695312,9.4472656 6.9002743,9.1857795 7.3458733,8.693723 7.8144531,8.1582031 8.283033,7.6226833 8.875,7 8.875,6 8.875,5.6041667 8.8042827,5.5346672 8.7382813,5.3320312 8.6722798,5.1293953 8.5871697,4.8977146 8.484375,4.6386719 8.2787856,4.1205865 8.0070864,3.4975991 7.7167969,2.8847656 7.4265073,2.2719322 7.1211442,1.6758654 6.8339844,1.1972656 6.6904044,0.95796575 6.5555921,0.74908518 6.3964844,0.55664062 6.3169305,0.46041835 6.2347135,0.36672873 6.1035156,0.26367188 5.9723178,0.16061502 5.78125,0 5.375,0 Z M 5.0507812,2.1230469 c 0.027331,0.042729 0.038787,0.052275 0.068359,0.1015625 0.2284652,0.3807752 0.5168521,0.9409584 0.7890625,1.515625 C 6.1804136,4.3149009 6.4399644,4.9106635 6.625,5.3769531 6.7175178,5.6100979 6.7925639,5.812011 6.8378906,5.9511719 6.8832173,6.0903328 6.875,6.2708333 6.875,6 6.875,6 6.716967,6.3773167 6.3105469,6.8417969 5.9041267,7.306277 5.3497257,7.8142205 4.9804687,8.5527344 4.5515833,9.4105053 4.807063,10.376848 5.2148437,11.029297 c 0.4077808,0.652449 0.9531251,1.177734 1.453125,1.677734 0.1950001,0.195 0.7364427,0.743989 1.4199219,1.205078 0.3417396,0.230545 0.7214656,0.448857 1.171875,0.580079 0.4504095,0.131221 1.0244944,0.171346 1.5625004,-0.09766 0.738514,-0.369257 1.246457,-0.923658 1.710937,-1.330078 C 12.997683,12.658033 13.375,12.5 13.375,12.5 c -0.270833,0 -0.09033,-0.0082 0.04883,0.03711 0.139161,0.04533 0.341074,0.120373 0.574219,0.212891 0.46629,0.185036 1.062052,0.444586 1.636719,0.716797 0.574666,0.27221 1.134849,0.560597 1.515625,0.789062 0.04929,0.02957 0.05883,0.04103 0.101562,0.06836 -0.174454,1.322861 -1.166128,2.384152 -2.193359,2.726562 -1.373509,0.457837 -2.017496,0.459493 -3.941406,-0.02148 C 9.1552323,16.538808 7.9877503,16.198688 5.5820312,13.792969 3.1763122,11.38725 2.8361919,10.219768 2.3457031,8.2578125 1.8647255,6.3339021 1.8663825,5.6899151 2.3242188,4.3164062 2.6666292,3.2891749 3.72792,2.2975013 5.0507812,2.1230469 Z"
     id="path1" />
</svg>
