<svg width="34" height="27" viewBox="0 0 34 27" fill="none" xmlns="http://www.w3.org/2000/svg">
<path d="M17 0C20.9808 0 24.0325 -0.000803539 26.3359 0.198242C28.6153 0.395226 30.3705 0.799236 31.6143 1.7666C32.9112 2.77554 33.4745 4.24837 33.7402 6.1084C34.0027 7.94576 34 10.3645 34 13.4443C34 16.5242 34.0027 18.9429 33.7402 20.7803C33.4745 22.6405 32.9115 24.1141 31.6143 25.123C30.3705 26.0904 28.6153 26.4934 26.3359 26.6904C24.0325 26.8895 20.9809 26.8887 17 26.8887C13.0191 26.8887 9.96745 26.8895 7.66406 26.6904C5.38467 26.4934 3.6295 26.0904 2.38574 25.123C1.08852 24.1141 0.525518 22.6405 0.259766 20.7803C-0.00270832 18.9429 0 16.5242 0 13.4443C-3.36337e-08 10.3645 -0.00271579 7.94576 0.259766 6.1084C0.525499 4.24837 1.08881 2.77554 2.38574 1.7666C3.6295 0.799236 5.38467 0.395226 7.66406 0.198242C9.96745 -0.000803613 13.0192 -1.44397e-10 17 0ZM13.4453 19.667L24.1123 13.4453L13.4453 7.22266V19.667Z" fill="black"/>
</svg>
