<svg width="360" height="364" viewBox="0 0 360 364" fill="none" xmlns="http://www.w3.org/2000/svg">
<path opacity="0.1" d="M268.151 33.3924C226.56 -0.572408 135.06 -10.1958 83.4875 39.0532M350.776 215.104C364.64 166.421 344.121 87.7361 293.103 52.6391M75.7218 324.357C75.7218 324.357 110.104 234.351 185.522 215.104C255.949 196.99 339.131 241.71 339.131 241.71C339.131 241.71 308.076 329.452 228.222 352.095C137.276 377.569 75.7218 324.357 75.7218 324.357ZM75.7218 324.357L75.7215 157.93M147.811 232.086C147.811 232.086 156.129 173.78 131.174 129.626C107.884 88.3021 63.52 59.432 63.52 59.432C63.52 59.432 -10.789 116.04 8.06554 210.009C24.1473 287.562 75.1655 323.791 75.1655 323.791L242.638 271.712M253.182 74.1502C253.182 74.1502 214.919 83.2075 192.737 109.247C167.782 138.683 172.219 192.461 172.219 192.461C172.219 192.461 216.582 181.139 237.655 150.005C257.064 120.569 253.182 74.1502 253.182 74.1502Z" stroke="white" stroke-width="10" stroke-miterlimit="10" stroke-linecap="round" stroke-linejoin="round"/>
</svg>
