<svg width="32" height="32" viewBox="0 0 32 32" fill="none" xmlns="http://www.w3.org/2000/svg">
<g clip-path="url(#clip0_2001_692)">
<path d="M8.08789 2.77163C11.832 -0.251989 20.0692 -1.10868 24.7119 3.27557" stroke="white" stroke-miterlimit="10"/>
<path d="M0.64988 18.948C-0.59817 14.6142 1.24894 7.60943 5.84177 4.48502" stroke="white" stroke-miterlimit="10"/>
<path d="M9.43478 6.40002C9.43478 6.40002 12.8794 7.20632 14.8763 9.52443C17.1228 12.1449 16.7234 16.9323 16.7234 16.9323C16.7234 16.9323 12.7296 15.9244 10.8326 13.1528C9.08532 10.5323 9.43478 6.40002 9.43478 6.40002Z" stroke="white" stroke-miterlimit="10"/>
<path d="M25.4102 28.674C25.4102 28.674 22.3151 20.6614 15.5257 18.948C9.18557 17.3354 1.69727 21.3165 1.69727 21.3165C1.69727 21.3165 4.4929 29.1275 11.6817 31.1433C19.8689 33.411 25.4102 28.674 25.4102 28.674Z" stroke="white" stroke-miterlimit="10"/>
<path d="M18.9214 20.4598C18.9214 20.4598 18.1726 15.2693 20.4191 11.3386C22.5158 7.65982 26.5096 5.08974 26.5096 5.08974C26.5096 5.08974 33.1991 10.1291 31.5018 18.4945C30.054 25.3984 25.4612 28.6236 25.4612 28.6236L10.3848 23.9874" stroke="white" stroke-miterlimit="10"/>
<path d="M25.4121 13.8583V28.674" stroke="white" stroke-miterlimit="10"/>
</g>
<defs>
<clipPath id="clip0_2001_692">
<rect width="32" height="32" fill="white"/>
</clipPath>
</defs>
</svg>
