<svg width="151" height="151" viewBox="0 0 151 151" fill="none" xmlns="http://www.w3.org/2000/svg">
<g opacity="0.3">
<path d="M112.305 13.7689C94.8717 -0.309818 56.5176 -4.29879 34.8998 16.1154" stroke="white" stroke-width="4" stroke-miterlimit="10" stroke-linecap="round" stroke-linejoin="round"/>
<path d="M146.94 89.0901C152.751 68.9106 144.15 36.2949 122.765 21.7468" stroke="white" stroke-width="4" stroke-miterlimit="10" stroke-linecap="round" stroke-linejoin="round"/>
<path d="M106.031 30.6633C106.031 30.6633 89.992 34.4177 80.694 45.2114C70.2338 57.4129 72.0934 79.7043 72.0934 79.7043C72.0934 79.7043 90.6893 75.0114 99.5224 62.1059C107.658 49.9043 106.031 30.6633 106.031 30.6633Z" stroke="white" stroke-width="4" stroke-miterlimit="10" stroke-linecap="round" stroke-linejoin="round"/>
<path d="M31.6449 134.377C31.6449 134.377 46.0568 97.0682 77.6699 89.0902C107.191 81.5816 142.058 100.119 142.058 100.119C142.058 100.119 129.041 136.489 95.5685 145.874C57.4468 156.434 31.6449 134.377 31.6449 134.377Z" stroke="white" stroke-width="4" stroke-miterlimit="10" stroke-linecap="round" stroke-linejoin="round"/>
<path d="M61.8622 96.1294C61.8622 96.1294 65.349 71.9609 54.8888 53.6586C45.1259 36.5294 26.53 24.5625 26.53 24.5625C26.53 24.5625 -4.61825 48.0271 3.28502 86.9783C10.0261 119.125 31.4114 134.142 31.4114 134.142L101.611 112.555" stroke="white" stroke-width="4" stroke-miterlimit="10" stroke-linecap="round" stroke-linejoin="round"/>
<path d="M31.6453 65.3909V134.377" stroke="white" stroke-width="4" stroke-miterlimit="10" stroke-linecap="round" stroke-linejoin="round"/>
</g>
</svg>
