<svg width="149" height="149" viewBox="0 0 149 149" fill="none" xmlns="http://www.w3.org/2000/svg">
<path d="M139.688 11.625H9.3125C4.19295 11.625 0 15.818 0 20.9375V128.059C0 133.179 4.19295 137.372 9.3125 137.372H139.688C144.807 137.372 149 133.179 149 128.059V20.9375C149 15.818 144.807 11.625 139.688 11.625ZM139.688 128.059L9.31264 128.059V100.622L46.686 64.4036L85.2142 102.89C86.802 104.818 89.6283 104.573 91.6351 103.053L108.642 87.6569L139.315 119.142C139.432 119.259 139.562 119.345 139.688 119.445L139.688 128.059ZM139.688 106.189L112.328 78.1908C110.668 76.5541 108.067 76.3865 106.226 77.7903L88.6831 93.0721L50.1318 54.9374C49.7259 54.4456 49.2236 54.0422 48.6558 53.7519C48.0881 53.4616 47.4669 53.2906 46.8305 53.2495C45.5477 53.203 44.2834 53.6221 43.3428 54.5044L9.31264 87.622V20.9375H139.688V106.189ZM107.094 58.2201C112.228 58.2201 116.383 54.0574 116.383 48.9309C116.383 43.8065 112.228 39.6438 107.094 39.6438C101.961 39.6438 97.8048 43.8065 97.8048 48.9307C97.8048 54.0574 101.961 58.2201 107.094 58.2201Z" fill="#6C6C6C"/>
</svg>
