<svg xmlns="http://www.w3.org/2000/svg" width="32" height="32" viewBox="0 0 32 32" fill="none">
  <g clip-path="url(#clip0_4071_1017)">
    <path d="M8.08789 2.77169C11.832 -0.251928 20.0692 -1.10862 24.7119 3.27563" stroke="#CEB388" stroke-miterlimit="10"/>
    <path d="M0.64988 18.9481C-0.59817 14.6142 1.24894 7.60952 5.84177 4.48511" stroke="#CEB388" stroke-miterlimit="10"/>
    <path d="M9.43478 6.40015C9.43478 6.40015 12.8794 7.20645 14.8763 9.52456C17.1228 12.145 16.7234 16.9324 16.7234 16.9324C16.7234 16.9324 12.7296 15.9246 10.8326 13.1529C9.08532 10.5324 9.43478 6.40015 9.43478 6.40015Z" stroke="#CEB388" stroke-miterlimit="10"/>
    <path d="M25.4102 28.674C25.4102 28.674 22.3151 20.6614 15.5257 18.948C9.18557 17.3354 1.69727 21.3165 1.69727 21.3165C1.69727 21.3165 4.4929 29.1275 11.6817 31.1433C19.8689 33.411 25.4102 28.674 25.4102 28.674Z" stroke="#CEB388" stroke-miterlimit="10"/>
    <path d="M18.9214 20.4599C18.9214 20.4599 18.1726 15.2694 20.4191 11.3387C22.5158 7.65992 26.5096 5.08984 26.5096 5.08984C26.5096 5.08984 33.1991 10.1292 31.5018 18.4946C30.054 25.3985 25.4612 28.6237 25.4612 28.6237L10.3848 23.9875" stroke="#CEB388" stroke-miterlimit="10"/>
    <path d="M25.4121 13.8584V28.6741" stroke="#CEB388" stroke-miterlimit="10"/>
  </g>
  <defs>
    <clipPath id="clip0_4071_1017">
      <rect width="32" height="32" fill="white"/>
    </clipPath>
  </defs>
</svg>