<svg width="571" height="559" viewBox="0 0 571 559" fill="none" xmlns="http://www.w3.org/2000/svg">
<path opacity="0.1" d="M384.421 -65.5752C421.496 -95.99 503.062 -104.608 549.035 -60.506M310.766 97.144C298.408 53.5495 316.698 -16.9115 362.177 -48.3401M555.957 194.978C555.957 194.978 525.309 114.379 458.079 97.144C395.298 80.9228 321.147 120.969 321.147 120.969C321.147 120.969 348.83 199.541 420.015 219.817C501.086 242.628 555.957 194.978 555.957 194.978ZM555.957 194.978L555.958 45.9457M491.695 112.351C491.695 112.351 484.28 60.1393 506.525 20.6001C527.288 -16.4046 566.834 -42.2572 566.834 -42.2572C566.834 -42.2572 633.076 8.43413 616.268 92.5817C601.932 162.029 556.453 194.471 556.453 194.471L407.164 147.835M397.764 -29.0774C397.764 -29.0774 431.873 -20.9668 451.647 2.35126C473.892 28.7108 469.937 76.8675 469.937 76.8675C469.937 76.8675 430.39 66.7293 411.606 38.849C394.304 12.4895 397.764 -29.0774 397.764 -29.0774Z" stroke="white" stroke-width="10" stroke-miterlimit="10" stroke-linecap="round" stroke-linejoin="round"/>
<g opacity="0.1" filter="url(#filter0_f_3003_7944)">
<circle cx="462.5" cy="96.5" r="262.5" fill="#86E298"/>
</g>
<defs>
<filter id="filter0_f_3003_7944" x="0" y="-366" width="925" height="925" filterUnits="userSpaceOnUse" color-interpolation-filters="sRGB">
<feFlood flood-opacity="0" result="BackgroundImageFix"/>
<feBlend mode="normal" in="SourceGraphic" in2="BackgroundImageFix" result="shape"/>
<feGaussianBlur stdDeviation="100" result="effect1_foregroundBlur_3003_7944"/>
</filter>
</defs>
</svg>
