<svg width="165" height="126" viewBox="0 0 165 126" fill="none" xmlns="http://www.w3.org/2000/svg">
<path d="M14.5768 115.086C5.09221 105.012 0 93.7132 0 75.3978C0 43.1687 22.6249 14.2821 55.5262 0L63.7493 12.6891C33.0395 29.3009 27.0357 50.8576 24.6415 64.4491C29.5864 61.8892 36.0598 60.996 42.4044 61.5853C59.0162 63.1231 72.1105 76.7607 72.1105 93.7132C72.1105 102.261 68.7149 110.459 62.6708 116.503C56.6266 122.547 48.429 125.942 39.8813 125.942C35.1542 125.902 30.4824 124.921 26.1381 123.057C21.7938 121.193 17.8637 118.483 14.5768 115.086ZM106.66 115.086C97.1755 105.012 92.0833 93.7132 92.0833 75.3978C92.0833 43.1687 114.708 14.2821 147.61 0L155.833 12.6891C125.123 29.3009 119.119 50.8576 116.725 64.4491C121.67 61.8892 128.143 60.996 134.488 61.5853C151.1 63.1231 164.194 76.7607 164.194 93.7132C164.194 102.261 160.798 110.459 154.754 116.503C148.71 122.547 140.512 125.942 131.965 125.942C127.238 125.902 122.566 124.921 118.221 123.057C113.877 121.193 109.947 118.483 106.66 115.086Z" fill="white" fill-opacity="0.1"/>
</svg>
