<svg width="60" height="60" viewBox="0 0 60 60" fill="none" xmlns="http://www.w3.org/2000/svg">
<mask id="mask0_668_6068" style="mask-type:alpha" maskUnits="userSpaceOnUse" x="0" y="0" width="60" height="60">
<circle cx="30" cy="30" r="30" fill="#D9D9D9"/>
</mask>
<g mask="url(#mask0_668_6068)">
<path d="M2.25657 60.3919C2.25863 60.5395 2.28975 60.6852 2.34815 60.8208C2.40654 60.9563 2.49107 61.0791 2.59689 61.1819C2.70272 61.2848 2.82778 61.3659 2.96493 61.4204C3.10208 61.475 3.24863 61.502 3.39621 61.4999H55.8501C55.9978 61.5022 56.1445 61.4753 56.2818 61.4208C56.4191 61.3664 56.5443 61.2854 56.6503 61.1825C56.7563 61.0796 56.841 60.9568 56.8994 60.8211C56.9579 60.6855 56.9891 60.5396 56.9911 60.3919V59.0692C57.0171 58.6702 57.0704 56.6819 55.7593 54.4818C54.9323 53.0943 53.7321 51.897 52.192 50.9201C50.3291 49.7387 47.959 48.8843 45.0919 48.3699C43.6364 48.1657 42.1926 47.8849 40.7667 47.5285C36.9746 46.5603 36.6433 45.703 36.6404 45.6944C36.618 45.6099 36.5861 45.5282 36.5453 45.4509C36.5136 45.2924 36.4372 44.6902 36.5842 43.0779C36.9559 38.9818 39.1531 36.5612 40.918 34.6162C41.4741 34.0038 42 33.4232 42.4049 32.8555C44.1525 30.4062 44.3139 27.6182 44.3211 27.4454C44.3277 27.139 44.2854 26.8336 44.1957 26.5405C44.0228 26.0074 43.7016 25.6761 43.4653 25.4311C43.4094 25.375 43.3551 25.3173 43.3025 25.2582C43.2852 25.2381 43.2391 25.1833 43.2808 24.9081C43.4222 24.0216 43.5198 23.1287 43.5733 22.2326C43.654 20.7889 43.716 18.6306 43.3428 16.5285C43.2882 16.1269 43.2054 15.7298 43.095 15.3398C42.7031 13.8923 42.0692 12.658 41.1932 11.637C41.0419 11.4713 37.3708 7.60279 26.7135 6.81036C25.2396 6.70085 23.783 6.75993 22.348 6.83341C21.9236 6.84294 21.5013 6.89507 21.0873 6.98901C19.9866 7.27285 19.6927 7.97019 19.6163 8.36065C19.4881 9.009 19.7129 9.5104 19.8612 9.84466C19.8829 9.8922 19.9102 9.95128 19.8627 10.1069C19.6163 10.4901 19.2259 10.8359 18.8297 11.163C18.7144 11.2595 16.0432 13.5648 15.8963 16.5746C15.5001 18.864 15.5289 22.43 15.9971 24.8952C16.0259 25.032 16.0648 25.2337 16 25.3706C15.4957 25.8216 14.9252 26.3331 14.9266 27.5001C14.9324 27.6182 15.0952 30.4047 16.8429 32.8555C17.2463 33.4232 17.7721 34.0024 18.3268 34.6147L18.3297 34.6162C20.0947 36.5612 22.2918 38.9818 22.6635 43.0765C22.809 44.6902 22.7327 45.291 22.7024 45.4509C22.6611 45.5281 22.6287 45.6098 22.6059 45.6944C22.6045 45.703 22.2745 46.5574 18.4997 47.5242C16.3213 48.0818 14.1774 48.3671 14.1126 48.3743C11.3262 48.8454 8.97052 49.6796 7.1105 50.8539C5.57609 51.8235 4.37305 53.0251 3.53741 54.4227C2.20038 56.6559 2.2364 58.6903 2.25513 59.062L2.25657 60.3919Z" fill="#6B806F"/>
</g>
</svg>
