<svg width="50" height="50" viewBox="0 0 50 50" fill="none" xmlns="http://www.w3.org/2000/svg">
<path d="M12.7275 4.79133C18.3438 0.255898 30.6995 -1.02914 37.6636 5.54724" stroke="#6B806F" stroke-width="2" stroke-miterlimit="10"/>
<path d="M1.57052 29.0558C-0.301553 22.555 2.46912 12.0479 9.35835 7.36133" stroke="#6B806F" stroke-width="2" stroke-miterlimit="10"/>
<path d="M14.7479 10.2344C14.7479 10.2344 19.9148 11.4438 22.9101 14.921C26.2798 18.8517 25.6808 26.0328 25.6808 26.0328C25.6808 26.0328 19.6901 24.521 16.8446 20.3635C14.2237 16.4328 14.7479 10.2344 14.7479 10.2344Z" stroke="#6B806F" stroke-width="2" stroke-miterlimit="10"/>
<path d="M38.711 43.6453C38.711 43.6453 34.0683 31.6264 23.8842 29.0563C14.3741 26.6374 3.1416 32.609 3.1416 32.609C3.1416 32.609 7.33505 44.3256 18.1182 47.3492C30.399 50.7508 38.711 43.6453 38.711 43.6453Z" stroke="#6B806F" stroke-width="2" stroke-miterlimit="10"/>
<path d="M28.9776 31.3237C28.9776 31.3237 27.8544 23.5378 31.2241 17.6418C34.3692 12.1237 40.3598 8.26855 40.3598 8.26855C40.3598 8.26855 50.3941 15.8276 47.8481 28.3756C45.6765 38.7315 38.7873 43.5693 38.7873 43.5693L16.1726 36.615" stroke="#6B806F" stroke-width="2" stroke-miterlimit="10"/>
<path d="M38.7139 21.4209V43.6445" stroke="#6B806F" stroke-width="2" stroke-miterlimit="10"/>
</svg>
