<svg xmlns="http://www.w3.org/2000/svg" width="34" height="34" viewBox="0 0 34 34" fill="none"><g clip-path="url(#clip0_1112_10703)">
<path d="M9.08691 3.77169C12.8311 0.748072 21.0682 -0.10862 25.7109 4.27563" stroke="#6B806F" stroke-miterlimit="10"></path>
<path d="M1.6489 19.9483C0.400853 15.6145 2.24797 8.60976 6.84079 5.48535" stroke="#6B806F" stroke-miterlimit="10"></path>
<path d="M10.4348 7.40039C10.4348 7.40039 13.8794 8.20669 15.8763 10.5248C18.1228 13.1453 17.7234 17.9327 17.7234 17.9327C17.7234 17.9327 13.7296 16.9248 11.8326 14.1531C10.0853 11.5327 10.4348 7.40039 10.4348 7.40039Z" stroke="#6B806F" stroke-miterlimit="10"></path>
<path d="M26.4102 29.674C26.4102 29.674 23.3151 21.6614 16.5257 19.948C10.1856 18.3354 2.69727 22.3165 2.69727 22.3165C2.69727 22.3165 5.4929 30.1275 12.6817 32.1433C20.8689 34.411 26.4102 29.674 26.4102 29.674Z" stroke="#6B806F" stroke-miterlimit="10"></path>
<path d="M19.9205 21.4599C19.9205 21.4599 19.1716 16.2694 21.4181 12.3387C23.5148 8.65992 27.5086 6.08984 27.5086 6.08984C27.5086 6.08984 34.1981 11.1292 32.5008 19.4946C31.0531 26.3985 26.4602 29.6237 26.4602 29.6237L11.3838 24.9875" stroke="#6B806F" stroke-miterlimit="10"></path>
<path d="M26.4102 14.8584V29.6741" stroke="#6B806F" stroke-miterlimit="10"></path>
</g><defs>
<clipPath id="clip0_1112_10703">
<rect width="34" height="34" fill="white"></rect>
</clipPath>
</defs></svg>