<svg width="644" height="650" viewBox="0 0 644 650" fill="none" xmlns="http://www.w3.org/2000/svg">
<g opacity="0.1">
<path d="M163.759 60.472C237.392 0.0940679 399.382 -17.013 490.686 70.535" stroke="white" stroke-width="20" stroke-miterlimit="10" stroke-linecap="round" stroke-linejoin="round"/>
<path d="M17.4804 383.494C-7.06368 296.952 29.2616 157.077 119.584 94.6862" stroke="white" stroke-width="20" stroke-miterlimit="10" stroke-linecap="round" stroke-linejoin="round"/>
<path d="M190.26 132.926C190.26 132.926 258.001 149.026 297.272 195.316C341.451 247.644 333.597 343.242 333.597 343.242C333.597 343.242 255.056 323.116 217.749 267.77C183.387 215.442 190.26 132.926 190.26 132.926Z" stroke="white" stroke-width="20" stroke-miterlimit="10" stroke-linecap="round" stroke-linejoin="round"/>
<path d="M504.435 577.71C504.435 577.71 443.565 417.708 310.046 383.494C185.362 351.293 38.0972 430.79 38.0972 430.79C38.0972 430.79 93.0759 586.767 234.45 627.018C395.459 672.302 504.435 577.71 504.435 577.71Z" stroke="white" stroke-width="20" stroke-miterlimit="10" stroke-linecap="round" stroke-linejoin="round"/>
<path d="M376.809 413.683C376.809 413.683 362.082 310.034 406.262 231.543C447.496 158.083 526.037 106.762 526.037 106.762C526.037 106.762 657.593 207.392 624.213 374.437C595.742 512.3 505.42 576.703 505.42 576.703L208.927 484.124" stroke="white" stroke-width="20" stroke-miterlimit="10" stroke-linecap="round" stroke-linejoin="round"/>
<path d="M504.435 281.858V577.71" stroke="white" stroke-width="20" stroke-miterlimit="10" stroke-linecap="round" stroke-linejoin="round"/>
</g>
</svg>
